<svg xmlns="http://www.w3.org/2000/svg" width="146.621" height="157.712" viewBox="0 0 146.621 157.712">
  <g id="Storefront-Digital_Marketing" data-name="Storefront-Digital Marketing" transform="translate(-3.938 -4)">
    <path id="Path_4067" data-name="Path 4067" d="M17.673,4,5,20.9H106.386L93.713,4Z" transform="translate(1.929)" fill="#292d36"/>
    <path id="Path_4068" data-name="Path 4068" d="M61.8,30.816,62.737,28H42.387l.941,2.816Z" transform="translate(69.834 43.591)" fill="#292d36"/>
    <path id="Path_4069" data-name="Path 4069" d="M9.948,58.3a2.816,2.816,0,0,0,3.844,1.031l2.442-1.408L7.785,43.274,5.343,44.682a2.816,2.816,0,0,0-1.028,3.844Z" transform="translate(0 71.333)" fill="#292d36"/>
    <path id="Path_4070" data-name="Path 4070" d="M25.342,33.229,10.334,52.29,19.7,68.509l1.135-.158,22.879-3.318Z" transform="translate(11.617 53.088)" fill="#292d36"/>
    <path id="Path_4071" data-name="Path 4071" d="M0,0H5.621V16.895H0Z" transform="matrix(0.866, -0.5, 0.5, 0.866, 12.673, 111.792)" fill="#292d36"/>
    <path id="Path_4072" data-name="Path 4072" d="M43.285,73.736a2.873,2.873,0,0,0,1.028-3.881l-.484-.845L30.592,46.165c-.045-.082-.09-.166-.127-.251L21.788,30.858a2.816,2.816,0,0,0-2.433-1.408,2.582,2.582,0,0,0-1.341.344,2.844,2.844,0,0,0-1.127,3.889l22.53,38.994a2.867,2.867,0,0,0,3.867,1.059Z" transform="translate(22.862 46.224)" fill="#292d36"/>
    <path id="Path_4073" data-name="Path 4073" d="M4,20.449a8.449,8.449,0,1,0,16.9,0H26.53a8.449,8.449,0,0,0,16.9,0h5.633a8.449,8.449,0,0,0,16.9,0h5.633a8.449,8.449,0,1,0,16.9,0h5.633a8.449,8.449,0,0,0,16.9,0V12H4Z" transform="translate(0.113 14.53)" fill="#292d36"/>
    <path id="Path_4074" data-name="Path 4074" d="M19.444,47.867,10.17,53.218,20.027,70.29a2.816,2.816,0,0,0,3.847,1.031L28.752,68.5a2.816,2.816,0,0,0,1.031-3.844l-9.75-16.9Z" transform="translate(11.319 79.486)" fill="#292d36"/>
    <path id="Path_4075" data-name="Path 4075" d="M38.816,118.121H89.509a2.816,2.816,0,0,0,2.816-2.816V30.816A2.816,2.816,0,0,0,89.509,28H80.272L78.74,32.6a5.633,5.633,0,0,1-5.342,3.85H54.928A5.633,5.633,0,0,1,49.577,32.6L48.054,28H38.816A2.816,2.816,0,0,0,36,30.816V115.3a2.816,2.816,0,0,0,2.816,2.816Zm6.427-54.073a11.778,11.778,0,0,1,16.334-2.073l2.585,1.932,2.588-1.94A11.828,11.828,0,1,1,80.943,80.893L65.853,92.211a2.816,2.816,0,0,1-3.38,0L47.383,80.893a11.828,11.828,0,0,1-2.14-16.853Z" transform="translate(58.234 43.591)" fill="#292d36"/>
    <path id="Path_4076" data-name="Path 4076" d="M42.839,52.374l13.4,10.051,13.4-10.051a6.2,6.2,0,1,0-7.438-9.913l-4.275,3.208a2.816,2.816,0,0,1-3.38,0l-4.275-3.208a6.2,6.2,0,0,0-7.438,9.913Z" transform="translate(66.155 67.603)" fill="#292d36"/>
    <path id="Path_4077" data-name="Path 4077" d="M27.471,36.282a2.816,2.816,0,0,0-3.847-1.028l2.816,4.872a2.816,2.816,0,0,0,1.031-3.844Z" transform="translate(35.755 56.079)" fill="#292d36"/>
    <path id="Path_4078" data-name="Path 4078" d="M84.856,85.645V49.034A8.449,8.449,0,0,1,93.3,40.585h8.449V23.405A13.974,13.974,0,0,1,87.672,17.97a13.952,13.952,0,0,1-22.53,0,13.952,13.952,0,0,1-22.53,0,13.952,13.952,0,0,1-22.53,0A13.974,13.974,0,0,1,6,23.405V77.2a8.229,8.229,0,0,0,.983,3.839l5.954-3.441L30.364,55.455A8.449,8.449,0,0,1,34.256,45.8a8.1,8.1,0,0,1,4.224-1.127A8.463,8.463,0,0,1,45.788,48.9l7.041,12.186a8.454,8.454,0,0,1,8.449,14.645l5.731,9.916Zm-1.611-7.322L71.7,75.225l1.459-5.441,11.547,3.1ZM77.587,53.258,80.4,58.139l-9.758,5.633-2.816-4.881Zm-13.7.453-5.441-1.456,3.1-11.547,5.438,1.456Z" transform="translate(3.745 25.373)" fill="#292d36"/>
  </g>
</svg>
