<svg xmlns="http://www.w3.org/2000/svg" width="21.275" height="15" viewBox="0 0 21.275 15">
  <g id="handshake" transform="translate(0 -74.184)">
    <path id="Path_2005" data-name="Path 2005" d="M14.893,289.763H12.962l-.071.212a.756.756,0,0,0,.183.778l2.034,2.034a2.673,2.673,0,0,0,1.039.642l2.866.955a2.66,2.66,0,0,0,1.172.107l-4.77-4.519A.757.757,0,0,0,14.893,289.763Z" transform="translate(-12.308 -206.461)" fill="#80848f"/>
    <path id="Path_2006" data-name="Path 2006" d="M14.2,100.451a.764.764,0,0,0-.15-.183l-2.961-2.632a.758.758,0,0,0-.5-.192H9.263l-1.115.889A1.516,1.516,0,0,1,5.9,96.373l.214-.354-1.631.2A4.545,4.545,0,0,1,3.1,96.184L.448,95.7a.371.371,0,0,0-.312.082A.375.375,0,0,0,0,96.075v6.688a.38.38,0,0,0,.38.38H2.585a1.514,1.514,0,0,1,1.045.416l6.132,5.809a1.512,1.512,0,0,0,1.38.377l-1.574-2.2a.38.38,0,0,1,.618-.441l1.749,2.449,1.63-.408-2.115-3.525a.38.38,0,1,1,.652-.391l2.216,3.694a3.773,3.773,0,0,0,.96-.541l.695-.541-3-4.877a.38.38,0,1,1,.647-.4l2.958,4.806.107-.084a1.524,1.524,0,0,0,.377-1.97Z" transform="translate(0 -20.601)" fill="#80848f"/>
    <path id="Path_2007" data-name="Path 2007" d="M167.146,77.675a.38.38,0,0,0-.414-.378l-1.933.176a3.41,3.41,0,0,1-2.7-.964l-1.154-.81a1.145,1.145,0,0,0-.145-.086l-.042-.025-1.023-.69a4.164,4.164,0,0,0-2.336-.714h-3.315a.759.759,0,0,0-.632.338l-.406.61s0,.005,0,.008l-.617,1.024a.748.748,0,0,0,.195.988.76.76,0,0,0,.929-.014l1.076-.858V75.7a.38.38,0,1,1,.76,0v.38h1.074a1.519,1.519,0,0,1,1.01.384l2.961,2.632a1.521,1.521,0,0,1,.3.365l2.862,4.866v0l3.093-1.1a.752.752,0,0,0,.464-.7Z" transform="translate(-145.871 0)" fill="#80848f"/>
  </g>
</svg>
