<svg id="Group_990" data-name="Group 990" xmlns="http://www.w3.org/2000/svg" width="423.34" height="594.379" viewBox="0 0 423.34 594.379">
  <g id="Head" transform="translate(212.505 3.617)">
    <path id="Head_skin_" data-name="Head [skin]" d="M0,0,16.69,78.47C7.383,89.49,1.082,103,2.134,118.131c3.034,43.606,63.211,34.013,74.916,12S87.365,52.3,72.238,48.367C66.2,46.8,53.351,50.641,40.27,58.594L48.481,0Z" transform="translate(84.841 148.747) rotate(180)" fill="#b28b67"/>
  </g>
  <path id="Hair" d="M41.06,14.528c-3.276,9.895-4.524,38.379-4.827,46.8a12.32,12.32,0,0,1-1.463.087A12.193,12.193,0,0,1,26.251,40.5c-2.822-3.981-5.982-8.142-9.605-12.434C3.034,36.228-7.065,60.133,6.242,83.1c3.678,11.249,12,17.259,21.838,20.048A35.375,35.375,0,0,0,51.3,104.855c13.683-1.174,25.9-5.348,29.366-7.826,0-12.954-2.511-16.8-23.951-16.46C51.443,77.788,47.392,73,43.174,66.717c.03-.419,2.865-39.008,14.815-39.008,12.014,0,22.208,7.628,27.48,7.628,3.842,0,2.985-4.81.437-8.374-2.1-2.943-12.336-5.777-12.336-10.338,0-2.575,2.579-2.571,4.823-2.566,1.73,0,3.263.005,3.263-1.172C81.656,8.413,83.079,0,75.312,0,67.454,0,44.92,2.864,41.06,14.528Z" transform="translate(297.468 106.075) rotate(180)" fill="#292d36"/>
  <g id="Seat" transform="translate(216.801 371.628)">
    <g id="Seat-2" data-name="Seat" transform="translate(0)">
      <path id="Seat_Stuff" data-name="Seat Stuff" d="M156.928,0H18.18L0,222.58H206.538Z" fill="#c5cfd6"/>
      <path id="Seat_Stuff-2" data-name="Seat Stuff" d="M68.214,0H25.541L0,222.58H117.823Z" transform="translate(88.715)" fill="rgba(0,0,0,0.1)"/>
    </g>
  </g>
  <path id="Legs_skin_" data-name="Legs [skin]" d="M99.206,9.611c-1.8,22.708-5.139,101.318-1.8,137.7,1.456,15.856,3.031,30.917,4.572,44.2C70.8,136.579,20.71,57.7,20.71,57.7L0,67.07s23.12,76.813,38.173,108.378c17.181,36.032,33.334,66.868,40.164,77.714,10.768,17.1,30.056,10.755,40.3.147,14.808,8.735,39.482-2.643,39.464-15.3-.051-37.991-34.74-217.039-36.551-228.358C120.59,3.657,114.7,0,109.207,0,104.318,0,99.737,2.893,99.206,9.611Z" transform="translate(194.972 587.192) rotate(180)" fill="#b28b67"/>
  <path id="LegLower" d="M0,0,9.223,182.224c6.63,31.51,62.691,16.9,62.665.011C71.828,143.9,48.767,11.467,48.75.046Z" transform="translate(196.895 499.763) rotate(160)" fill="#d4d8db"/>
  <g id="Left_shoe_" data-name="Left [shoe]" transform="translate(212.765 539.401) rotate(150)">
    <path id="shoe" d="M6.622,30.712c-1.6.705-3.335-.477-3.8-2.594L0,15.184C0,9.982,1.334,0,1.334,0H84.827s3.255,13.98-3.757,15.095-11.65,2.013-11.65,2.013L30.613,39.587c-.762.441-1.653-.022-1.971-1.024L26.147,30.7s-6.491-3.935-10.55-3.935Z" transform="translate(0 0)" fill="#e4e4e4"/>
  </g>
  <g id="Right_shoe_" data-name="Right [shoe]" transform="translate(0 557.28)">
    <path id="shoe-2" data-name="shoe" d="M95.8,8.77a3.592,3.592,0,0,1,4.607,2.42l3.427,12.07c0,4.855-1.619,14.17-1.619,14.17H.915S-3.033,24.385,5.474,23.344s14.134-1.879,14.134-1.879L66.69.488a1.8,1.8,0,0,1,2.392.955l3.026,7.337s7.875,3.672,12.8,3.672Z" transform="translate(0 -0.332)" fill="#e4e4e4"/>
  </g>
  <path id="Leg_and_Butt" data-name="Leg and Butt" d="M0,65.4c0,47.688,22.66,158.925,22.674,169.425l48.753.037S60.723,85.977,63.836,84.373,191.442,96.8,228.78,96.8c53.841,0,76.114-33.934,77.921-96.8H200.044C178.328,2.322,65.053,25.157,22.986,33.007,4.976,36.368,0,52.261,0,65.4Z" transform="translate(31.897 296.704)" fill="#d4d8db"/>
  <path id="Arms_skin_" data-name="Arms [skin]" d="M97.633,27.464,125.016,42.5s5.762,21.918,13.778,22.055c2.067.963,1.279-3.247.983-7.456-.293-4.145-.107-8.291,3.755-7.5,7.781,1.6,26.774,15.719,30.047,12.853,4.841-4.242.525-17.263-4.561-23.74-9.508-12.107-17.378-16.247-36.833-21.669C116.928,12.793,99.193,0,99.193,0ZM0,56.255,62.338,90.379q15.551,18.455,30.642,28.665c3.074,1.283,8.45,2.06,3.424-6.859s-9.915-18.527-7.355-21.275c1.125-1.207,2.989-1.142,4.985-1.078,2.546.081,5.307.163,7.02-2.4q3.057-4.565-32.737-14.425L23.021,31.56Z" transform="translate(215.171 241.193) rotate(180)" fill="#997659"/>
  <path id="Sleeve" d="M9.885,43.728c21.6-3.188,51.082-3.191,84.85,11.417l7.8-28.768C78.041,8.735,45.547-3.8,19.64,1.052-.776,4.875-7.331,31.327,9.885,43.728Z" transform="translate(248.453 222.072) rotate(-171)" fill="#292d36"/>
  <path id="Clothes" d="M60.023,4.223C38.093,7.071,17.69,9.919,5.835,7.586c-20.326,65.976,18.975,92.786,19.005,135,.036,46.229,37.175,117.387,42.64,117.387h49.833c2.748-35.287,16.575-74.178,27.929-112.6,36.215-8.217,116.633,20.383,116.633,20.383s20.3-41.976,18.769-59.851c-46.811-24.439-86.925-35.334-119.978-36.052,1.05-19.6-1.337-38.253-9.356-55.294C145.312,3.812,128.713,0,108.455,0,93.382,0,76.281,2.112,60.023,4.223Z" transform="translate(361.389 368.265) rotate(180)" fill="#292d36"/>
</svg>
