<svg xmlns="http://www.w3.org/2000/svg" width="576.646" height="48.844" viewBox="0 0 576.646 48.844">
  <g id="Group_1337" data-name="Group 1337" transform="translate(-223.354 -9153)">
    <g id="thank-you-2" transform="translate(223.354 9153)">
      <path id="Path_4596" data-name="Path 4596" d="M155.1,12.5a5.719,5.719,0,0,1,4.833-1.677,6.094,6.094,0,0,1,9.182-2.04,9.8,9.8,0,0,0,3.293-7.329A1.455,1.455,0,0,0,170.952,0a9.828,9.828,0,0,0-9.5,7.32,8.293,8.293,0,0,0-.914-1.09,8.115,8.115,0,0,0-5.776-2.392h-1.026a1.455,1.455,0,0,0-1.455,1.455V6.319A8.146,8.146,0,0,0,155.1,12.5Zm0,0" transform="translate(-137.507 0)" fill="#0fc14c"/>
      <path id="Path_4597" data-name="Path 4597" d="M1.455,132.8H12.623a1.455,1.455,0,1,0,0-2.911H1.455a1.455,1.455,0,1,0,0,2.911Zm0,0" transform="translate(0 -117.289)" fill="#0fc14c"/>
      <path id="Path_4598" data-name="Path 4598" d="M368.053,132.8h11.2a1.455,1.455,0,0,0,0-2.911h-11.2a1.455,1.455,0,1,0,0,2.911Zm0,0" transform="translate(-331.031 -117.289)" fill="#0fc14c"/>
      <path id="Path_4599" data-name="Path 4599" d="M8.5,236.379H2.584a1.455,1.455,0,0,0,0,2.911h1.5v6.687a1.455,1.455,0,0,0,2.911,0V239.29H8.5a1.455,1.455,0,0,0,0-2.911Zm0,0" transform="translate(-1.019 -213.446)" fill="#0fc14c"/>
      <path id="Path_4600" data-name="Path 4600" d="M206.895,238.065a1.456,1.456,0,0,0-1.329-.862h-.01a1.456,1.456,0,0,0-1.327.88l-3.47,8.062a1.455,1.455,0,1,0,2.673,1.151l.186-.431h4.018l.2.449a1.455,1.455,0,0,0,2.658-1.187Zm-2.024,5.889.719-1.672.747,1.672Zm0,0" transform="translate(-181.175 -214.19)" fill="#0fc14c"/>
      <path id="Path_4601" data-name="Path 4601" d="M103.743,246.425v-1.631h3.041v1.631a1.455,1.455,0,0,0,2.911,0V238.33a1.455,1.455,0,1,0-2.911,0v3.553h-3.041V238.33a1.455,1.455,0,1,0-2.911,0v8.094a1.455,1.455,0,0,0,2.911,0Zm0,0" transform="translate(-91.049 -213.894)" fill="#0fc14c"/>
      <path id="Path_4602" data-name="Path 4602" d="M312,245.868v-3.947l3.806,4.846a1.455,1.455,0,0,0,2.6-.9v-8.155a1.455,1.455,0,1,0-2.911,0v3.947l-3.806-4.846a1.455,1.455,0,0,0-2.6.9v8.155a1.455,1.455,0,0,0,2.911,0Zm0,0" transform="translate(-279.102 -213.336)" fill="#0fc14c"/>
      <path id="Path_4603" data-name="Path 4603" d="M424.931,240.224l1.58-1.1a1.455,1.455,0,0,0-1.658-2.392l-2.566,1.774a1.454,1.454,0,0,0-.123.1l-.988.686V237.9a1.455,1.455,0,1,0-2.911,0v8.094a1.455,1.455,0,0,0,1.454,1.455h0a1.455,1.455,0,0,0,1.455-1.452l.006-3.165,1.312-.912,2.023,4.621a1.455,1.455,0,1,0,2.666-1.167Zm0,0" transform="translate(-377.686 -213.502)" fill="#0fc14c"/>
      <path id="Path_4604" data-name="Path 4604" d="M115.142,389.078a1.455,1.455,0,0,0-2.037.292L111.135,392l-1.97-2.628a1.455,1.455,0,0,0-2.329,1.746l2.843,3.794v3.476a1.455,1.455,0,1,0,2.911,0V394.91l2.843-3.794A1.455,1.455,0,0,0,115.142,389.078Zm0,0" transform="translate(-96.208 -351.068)" fill="#0fc14c"/>
      <path id="Path_4605" data-name="Path 4605" d="M211.179,388.171a4.641,4.641,0,0,0-3.29,1.314,4.173,4.173,0,0,0-1.257,2.98V395a4.473,4.473,0,0,0,4.519,4.351h.043a4.632,4.632,0,0,0,3.247-1.314,4.173,4.173,0,0,0,1.256-2.98v-2.538A4.472,4.472,0,0,0,211.179,388.171Zm1.609,6.889a1.275,1.275,0,0,1-.395.913,1.7,1.7,0,0,1-1.2.471h-.017A1.56,1.56,0,0,1,209.543,395v-2.538a1.273,1.273,0,0,1,.395-.913,1.7,1.7,0,0,1,1.2-.471h.017a1.56,1.56,0,0,1,1.636,1.44Zm0,0" transform="translate(-186.586 -350.511)" fill="#0fc14c"/>
      <path id="Path_4606" data-name="Path 4606" d="M321.618,387.83a1.455,1.455,0,0,0-1.455,1.455V394.7a1.275,1.275,0,0,1-.395.913,1.719,1.719,0,0,1-1.215.471,1.56,1.56,0,0,1-1.636-1.44v-5.416a1.455,1.455,0,0,0-2.911,0v5.416a4.473,4.473,0,0,0,4.52,4.351h.043a4.632,4.632,0,0,0,3.247-1.314,4.174,4.174,0,0,0,1.256-2.98v-5.416A1.455,1.455,0,0,0,321.618,387.83Zm0,0" transform="translate(-283.543 -350.152)" fill="#0fc14c"/>
      <path id="Path_4607" data-name="Path 4607" d="M197.367,141.074a2.786,2.786,0,1,0,2.817,2.786A2.8,2.8,0,0,0,197.367,141.074Zm0,0" transform="translate(-175.676 -127.387)" fill="#0fc14c"/>
      <path id="Path_4608" data-name="Path 4608" d="M258.378,107.148a3.2,3.2,0,0,0-3.066,2.255,4.863,4.863,0,0,1,1.865,3.822c0,.008,0,.016,0,.024a3.174,3.174,0,1,0,1.2-6.1Zm0,0" transform="translate(-230.542 -96.753)" fill="#0fc14c"/>
    </g>
    <text id="Thank_you_very_much_for_your_interest_in_our_services._We_will_drop_you_a_message_to_find_a_convenient_time_for_our_call._" data-name="Thank you very much for your interest in our services. We will drop you a message to find a convenient time for our call. " transform="translate(296 9153)" fill="#0fc14c" font-size="16" font-family="Poppins-Regular, Poppins"><tspan x="0" y="17">Thank you very much for your interest in our services. We will </tspan><tspan x="0" y="42">drop you a message to find a convenient time for our call. </tspan></text>
  </g>
</svg>
